# xmcd
#
# Track frame offsets: 
#        150
#        15019
#        31730
#        63048
#        94054
#        126164
#
# Disc length: 2005 seconds
#
# Revision: 0
# Processed by: cddbd v1.5.2PL0 Copyright (c) Steve Scherf et al.
# Submitted via: ExactAudioCopy v0.95b4
#
DISCID=3607d306
DTITLE=Crazy Doll - Mr. DJ Play this song
DYEAR=1900
DGENRE=
TTITLE0=Mark Oh short Edit
TTITLE1=Hardtrance Radio Edit
TTITLE2=Mark Oh Club Remix
TTITLE3=Finalizer Remix
TTITLE4=Voodoo Rocca Mix
TTITLE5=Dr. Brown Mix
EXTD=
EXTT0=
EXTT1=
EXTT2=
EXTT3=
EXTT4=
EXTT5=
PLAYORDER=
